<?xml version="1.0" standalone="no"?>
<!DOCTYPE svg PUBLIC "-//W3C//DTD SVG 20010904//EN"
 "http://www.w3.org/TR/2001/REC-SVG-20010904/DTD/svg10.dtd">
<svg version="1.0" xmlns="http://www.w3.org/2000/svg"
 width="1500.000000pt" height="1500.000000pt" viewBox="0 0 1500.000000 1500.000000"
 preserveAspectRatio="xMidYMid meet">
<metadata>
Created by potrace 1.14, written by Peter Selinger 2001-2017
</metadata>
<g transform="translate(0.000000,1500.000000) scale(0.100000,-0.100000)"
fill="#000000" stroke="none">
<path d="M7139 13875 c-2 -1 -51 -6 -109 -10 -58 -3 -118 -8 -135 -9 -16 -2
-61 -7 -100 -10 -74 -7 -124 -14 -165 -21 -14 -3 -43 -7 -65 -10 -22 -3 -92
-15 -155 -26 -146 -25 -150 -26 -180 -33 -14 -3 -37 -8 -53 -10 -15 -3 -35 -7
-45 -10 -9 -3 -28 -7 -42 -10 -14 -2 -43 -9 -65 -15 -22 -5 -105 -27 -185 -47
-150 -38 -446 -132 -566 -179 -288 -112 -435 -177 -649 -285 -148 -76 -339
-179 -385 -210 -8 -5 -28 -17 -44 -26 -68 -38 -356 -230 -464 -310 -122 -91
-347 -271 -416 -333 -323 -290 -461 -431 -721 -735 -108 -126 -282 -360 -402
-541 -69 -104 -134 -202 -145 -217 -10 -15 -18 -29 -18 -31 0 -3 -30 -55 -66
-118 -246 -423 -468 -949 -601 -1419 -41 -148 -116 -456 -128 -530 -8 -49 -24
-145 -30 -177 -3 -16 -8 -44 -11 -63 -2 -19 -7 -46 -9 -60 -3 -14 -7 -45 -10
-70 -3 -25 -8 -58 -10 -75 -2 -16 -6 -61 -10 -100 -4 -38 -8 -83 -10 -100 -21
-180 -28 -793 -12 -1010 15 -190 15 -199 21 -250 13 -104 18 -143 33 -245 8
-58 17 -118 19 -135 2 -16 11 -64 19 -105 8 -41 17 -84 19 -95 34 -174 98
-430 151 -602 51 -165 136 -406 146 -417 5 -6 9 -16 9 -22 0 -25 153 -372 245
-554 84 -167 179 -339 263 -475 17 -27 43 -70 58 -94 98 -161 359 -513 516
-697 136 -161 166 -192 358 -384 211 -211 291 -284 504 -459 180 -147 590
-431 754 -521 15 -8 50 -28 77 -45 162 -96 519 -274 705 -351 79 -32 361 -138
439 -164 172 -57 532 -158 626 -174 11 -2 43 -9 70 -15 28 -6 61 -13 75 -15
14 -2 59 -11 100 -19 41 -9 95 -18 120 -22 48 -6 115 -16 140 -20 8 -1 38 -6
65 -9 288 -38 477 -49 830 -49 254 -1 447 6 549 18 17 2 63 6 101 10 107 9
301 34 390 50 44 8 92 16 107 19 42 7 189 37 251 51 12 3 33 7 47 10 69 13
414 110 536 151 337 113 524 189 829 339 351 173 773 433 1038 640 153 119
215 168 232 184 12 11 41 36 65 56 154 127 439 406 589 575 51 58 105 119 120
135 166 185 466 606 629 882 104 176 123 212 222 410 183 370 277 608 410
1038 17 55 70 254 95 355 12 49 74 372 79 410 3 25 8 56 11 70 3 14 7 43 10
65 9 73 17 140 20 156 2 9 6 52 10 95 4 43 9 95 10 114 20 203 25 651 12 917
-4 83 -9 159 -11 170 -2 10 -7 56 -11 103 -4 47 -9 92 -10 100 -2 9 -6 43 -10
75 -4 33 -9 69 -11 80 -4 21 -15 89 -19 120 -5 37 -16 100 -47 250 -16 83 -31
157 -33 165 -53 264 -235 815 -356 1077 -10 24 -19 46 -19 49 0 13 -201 414
-262 524 -294 524 -640 983 -1062 1406 -214 213 -319 308 -521 469 -55 44
-102 82 -105 86 -12 13 -297 214 -401 282 -225 146 -391 242 -636 365 -367
185 -633 288 -1123 435 -161 49 -483 122 -625 142 -23 3 -52 8 -65 11 -14 2
-41 7 -60 9 -19 3 -46 7 -60 10 -14 2 -45 7 -70 10 -25 3 -61 8 -80 10 -39 6
-79 10 -190 21 -41 4 -93 9 -115 11 -51 5 -812 13 -816 8z"/>
</g>
</svg>
