<svg xmlns="http://www.w3.org/2000/svg" xmlns:xlink="http://www.w3.org/1999/xlink" width="500" zoomAndPan="magnify" viewBox="0 0 375 374.999991" height="500" preserveAspectRatio="xMidYMid meet" version="1.0"><defs><g/><clipPath id="e47e8e0a43"><path d="M 27.960938 27.960938 L 347.039062 27.960938 L 347.039062 347.039062 L 27.960938 347.039062 Z M 27.960938 27.960938 " clip-rule="nonzero"/></clipPath><clipPath id="ff190c087e"><path d="M 187.5 27.960938 C 99.390625 27.960938 27.960938 99.390625 27.960938 187.5 C 27.960938 275.609375 99.390625 347.039062 187.5 347.039062 C 275.609375 347.039062 347.039062 275.609375 347.039062 187.5 C 347.039062 99.390625 275.609375 27.960938 187.5 27.960938 " clip-rule="nonzero"/></clipPath></defs><rect x="-37.5" width="450" fill="#ffffff" y="-37.499999" height="449.999989" fill-opacity="1"/><rect x="-37.5" width="450" fill="#ffffff" y="-37.499999" height="449.999989" fill-opacity="1"/><rect x="-37.5" width="450" fill="#ffffff" y="-37.499999" height="449.999989" fill-opacity="1"/><g clip-path="url(#e47e8e0a43)"><g clip-path="url(#ff190c087e)"><path fill="#325152" d="M 27.960938 27.960938 L 347.039062 27.960938 L 347.039062 347.039062 L 27.960938 347.039062 Z M 27.960938 27.960938 " fill-opacity="1" fill-rule="nonzero"/></g></g><g fill="#ffffff" fill-opacity="1"><g transform="translate(107.130943, 255.887803)"><g><path d="M 132.796875 -49.921875 C 127.460938 -13.441406 110.078125 4.796875 80.640625 4.796875 C 70.828125 4.796875 61.707031 2.984375 53.28125 -0.640625 C 44.851562 -4.265625 37.597656 -9.222656 31.515625 -15.515625 C 25.441406 -21.804688 20.644531 -29.328125 17.125 -38.078125 C 13.601562 -46.828125 11.84375 -56.320312 11.84375 -66.5625 C 11.84375 -77.007812 13.65625 -86.875 17.28125 -96.15625 C 20.90625 -105.4375 25.914062 -113.539062 32.3125 -120.46875 C 38.71875 -127.40625 46.132812 -132.898438 54.5625 -136.953125 C 62.988281 -141.015625 72 -143.046875 81.59375 -143.046875 C 88 -143.046875 94.1875 -142.03125 100.15625 -140 C 106.132812 -137.96875 111.414062 -135.242188 116 -131.828125 C 120.582031 -128.421875 124.207031 -124.476562 126.875 -120 C 129.539062 -115.519531 130.875 -110.929688 130.875 -106.234375 C 130.875 -100.898438 129.488281 -96.6875 126.71875 -93.59375 C 123.945312 -90.5 120.425781 -88.953125 116.15625 -88.953125 C 112.320312 -88.953125 108.910156 -90.335938 105.921875 -93.109375 C 102.929688 -95.890625 101.4375 -99.09375 101.4375 -102.71875 C 101.4375 -106.34375 102.289062 -109.753906 104 -112.953125 C 105.707031 -116.160156 106.5625 -119.578125 106.5625 -123.203125 C 106.5625 -127.460938 104.265625 -131.03125 99.671875 -133.90625 C 95.085938 -136.789062 89.488281 -138.234375 82.875 -138.234375 C 55.78125 -138.234375 42.234375 -115.941406 42.234375 -71.359375 C 42.234375 -58.554688 42.976562 -47.726562 44.46875 -38.875 C 45.96875 -30.019531 48.367188 -22.765625 51.671875 -17.109375 C 54.984375 -11.460938 59.25 -7.359375 64.46875 -4.796875 C 69.695312 -2.234375 76.046875 -0.953125 83.515625 -0.953125 C 95.460938 -0.953125 105.007812 -4.84375 112.15625 -12.625 C 119.300781 -20.414062 124.796875 -32.953125 128.640625 -50.234375 Z M 132.796875 -49.921875 "/></g></g></g></svg>