<svg xmlns="http://www.w3.org/2000/svg" xmlns:xlink="http://www.w3.org/1999/xlink" width="180" zoomAndPan="magnify" viewBox="0 0 135 52.499999" height="70" preserveAspectRatio="xMidYMid meet" version="1.0"><defs><g/></defs><g fill="#343434" fill-opacity="1"><g transform="translate(3.042632, 47.904288)"><g><path d="M 26.8125 -10.078125 C 25.738281 -2.710938 22.226562 0.96875 16.28125 0.96875 C 14.300781 0.96875 12.457031 0.601562 10.75 -0.125 C 9.050781 -0.863281 7.585938 -1.867188 6.359375 -3.140625 C 5.140625 -4.410156 4.171875 -5.925781 3.453125 -7.6875 C 2.742188 -9.457031 2.390625 -11.375 2.390625 -13.4375 C 2.390625 -15.550781 2.753906 -17.546875 3.484375 -19.421875 C 4.222656 -21.296875 5.238281 -22.929688 6.53125 -24.328125 C 7.820312 -25.734375 9.316406 -26.84375 11.015625 -27.65625 C 12.722656 -28.476562 14.546875 -28.890625 16.484375 -28.890625 C 17.773438 -28.890625 19.019531 -28.679688 20.21875 -28.265625 C 21.425781 -27.859375 22.492188 -27.3125 23.421875 -26.625 C 24.347656 -25.9375 25.082031 -25.140625 25.625 -24.234375 C 26.164062 -23.328125 26.4375 -22.398438 26.4375 -21.453125 C 26.4375 -20.378906 26.15625 -19.53125 25.59375 -18.90625 C 25.03125 -18.28125 24.316406 -17.96875 23.453125 -17.96875 C 22.679688 -17.96875 21.992188 -18.242188 21.390625 -18.796875 C 20.785156 -19.359375 20.484375 -20.007812 20.484375 -20.75 C 20.484375 -21.476562 20.65625 -22.164062 21 -22.8125 C 21.34375 -23.457031 21.515625 -24.144531 21.515625 -24.875 C 21.515625 -25.738281 21.050781 -26.460938 20.125 -27.046875 C 19.195312 -27.628906 18.066406 -27.921875 16.734375 -27.921875 C 11.265625 -27.921875 8.53125 -23.414062 8.53125 -14.40625 C 8.53125 -11.820312 8.679688 -9.632812 8.984375 -7.84375 C 9.285156 -6.0625 9.769531 -4.597656 10.4375 -3.453125 C 11.101562 -2.316406 11.960938 -1.488281 13.015625 -0.96875 C 14.078125 -0.445312 15.359375 -0.1875 16.859375 -0.1875 C 19.273438 -0.1875 21.203125 -0.972656 22.640625 -2.546875 C 24.085938 -4.117188 25.203125 -6.648438 25.984375 -10.140625 Z M 26.8125 -10.078125 "/></g></g></g><g fill="#343434" fill-opacity="1"><g transform="translate(31.797784, 47.904288)"><g><path d="M 16.15625 -0.125 C 19.125 -0.125 21.222656 -1.234375 22.453125 -3.453125 C 23.679688 -5.671875 24.296875 -9.128906 24.296875 -13.828125 C 24.296875 -18.785156 23.648438 -22.363281 22.359375 -24.5625 C 21.066406 -26.757812 19 -27.859375 16.15625 -27.859375 C 13.3125 -27.859375 11.242188 -26.757812 9.953125 -24.5625 C 8.660156 -22.363281 8.015625 -18.785156 8.015625 -13.828125 C 8.015625 -9.128906 8.628906 -5.671875 9.859375 -3.453125 C 11.085938 -1.234375 13.1875 -0.125 16.15625 -0.125 Z M 16.15625 -28.890625 C 18.09375 -28.890625 19.910156 -28.488281 21.609375 -27.6875 C 23.316406 -26.894531 24.816406 -25.804688 26.109375 -24.421875 C 27.398438 -23.046875 28.421875 -21.441406 29.171875 -19.609375 C 29.929688 -17.773438 30.3125 -15.847656 30.3125 -13.828125 C 30.3125 -11.890625 29.921875 -10.023438 29.140625 -8.234375 C 28.367188 -6.453125 27.335938 -4.878906 26.046875 -3.515625 C 24.753906 -2.160156 23.242188 -1.082031 21.515625 -0.28125 C 19.796875 0.507812 18.007812 0.90625 16.15625 0.90625 C 14.257812 0.90625 12.457031 0.507812 10.75 -0.28125 C 9.050781 -1.082031 7.554688 -2.160156 6.265625 -3.515625 C 4.972656 -4.878906 3.9375 -6.453125 3.15625 -8.234375 C 2.382812 -10.023438 2 -11.890625 2 -13.828125 C 2 -15.847656 2.375 -17.773438 3.125 -19.609375 C 3.882812 -21.441406 4.910156 -23.046875 6.203125 -24.421875 C 7.492188 -25.804688 8.988281 -26.894531 10.6875 -27.6875 C 12.394531 -28.488281 14.21875 -28.890625 16.15625 -28.890625 Z M 16.15625 -28.890625 "/></g></g></g><g fill="#343434" fill-opacity="1"><g transform="translate(64.106943, 47.904288)"><g><path d="M 15.375 -0.265625 C 16.582031 -0.265625 17.691406 -0.617188 18.703125 -1.328125 C 19.722656 -2.035156 20.597656 -3.023438 21.328125 -4.296875 C 22.054688 -5.566406 22.625 -7.082031 23.03125 -8.84375 C 23.445312 -10.613281 23.65625 -12.554688 23.65625 -14.671875 C 23.65625 -16.523438 23.4375 -18.25 23 -19.84375 C 22.570312 -21.4375 21.988281 -22.800781 21.25 -23.9375 C 20.519531 -25.082031 19.640625 -25.976562 18.609375 -26.625 C 17.578125 -27.269531 16.457031 -27.59375 15.25 -27.59375 C 12.925781 -27.59375 11.222656 -26.472656 10.140625 -24.234375 C 9.066406 -21.992188 8.53125 -18.375 8.53125 -13.375 C 8.53125 -4.632812 10.8125 -0.265625 15.375 -0.265625 Z M 23.203125 0 L 23.203125 -5.5 C 21.816406 -3.164062 20.46875 -1.503906 19.15625 -0.515625 C 17.84375 0.472656 16.347656 0.96875 14.671875 0.96875 C 13.078125 0.96875 11.535156 0.5625 10.046875 -0.25 C 8.554688 -1.070312 7.238281 -2.171875 6.09375 -3.546875 C 4.957031 -4.929688 4.046875 -6.503906 3.359375 -8.265625 C 2.671875 -10.035156 2.328125 -11.890625 2.328125 -13.828125 C 2.328125 -15.847656 2.640625 -17.765625 3.265625 -19.578125 C 3.890625 -21.390625 4.738281 -22.972656 5.8125 -24.328125 C 6.894531 -25.679688 8.144531 -26.757812 9.5625 -27.5625 C 10.988281 -28.363281 12.519531 -28.765625 14.15625 -28.765625 C 15.0625 -28.765625 15.890625 -28.6875 16.640625 -28.53125 C 17.390625 -28.382812 18.117188 -28.113281 18.828125 -27.71875 C 19.546875 -27.332031 20.269531 -26.828125 21 -26.203125 C 21.738281 -25.578125 22.535156 -24.789062 23.390625 -23.84375 L 23.390625 -44.390625 L 18.546875 -44.390625 L 18.546875 -45.4375 L 29.015625 -45.4375 L 29.015625 -1.03125 L 34.1875 -1.03125 L 34.1875 0 Z M 23.203125 0 "/></g></g></g><g fill="#343434" fill-opacity="1"><g transform="translate(99.647016, 47.904288)"><g><path d="M 19.578125 -15.765625 C 18.546875 -15.503906 17.660156 -15.273438 16.921875 -15.078125 C 16.191406 -14.890625 15.554688 -14.726562 15.015625 -14.59375 C 14.484375 -14.46875 13.988281 -14.351562 13.53125 -14.25 C 13.082031 -14.144531 12.644531 -14.046875 12.21875 -13.953125 C 10.445312 -13.609375 9.21875 -12.910156 8.53125 -11.859375 C 7.84375 -10.804688 7.5 -9.132812 7.5 -6.84375 C 7.5 -4.90625 7.925781 -3.363281 8.78125 -2.21875 C 9.644531 -1.082031 10.8125 -0.515625 12.28125 -0.515625 C 13.1875 -0.515625 14.078125 -0.738281 14.953125 -1.1875 C 15.835938 -1.644531 16.625 -2.226562 17.3125 -2.9375 C 18.007812 -3.644531 18.5625 -4.460938 18.96875 -5.390625 C 19.375 -6.316406 19.578125 -7.253906 19.578125 -8.203125 Z M 30.375 0.640625 C 29.851562 0.734375 29.453125 0.789062 29.171875 0.8125 C 28.898438 0.832031 28.613281 0.84375 28.3125 0.84375 C 26.625 0.84375 25.195312 0.5 24.03125 -0.1875 C 22.875 -0.882812 21.582031 -2.132812 20.15625 -3.9375 C 19.164062 -2.945312 18.296875 -2.128906 17.546875 -1.484375 C 16.796875 -0.835938 16.082031 -0.34375 15.40625 0 C 14.738281 0.34375 14.0625 0.578125 13.375 0.703125 C 12.6875 0.835938 11.929688 0.90625 11.109375 0.90625 C 9.816406 0.90625 8.609375 0.695312 7.484375 0.28125 C 6.367188 -0.125 5.398438 -0.679688 4.578125 -1.390625 C 3.765625 -2.097656 3.128906 -2.945312 2.671875 -3.9375 C 2.222656 -4.925781 2 -6.003906 2 -7.171875 C 2 -11.046875 4.476562 -13.503906 9.4375 -14.546875 L 15.703125 -15.765625 C 16.222656 -15.847656 16.644531 -15.929688 16.96875 -16.015625 C 17.289062 -16.109375 17.578125 -16.1875 17.828125 -16.25 C 18.085938 -16.3125 18.359375 -16.394531 18.640625 -16.5 C 18.921875 -16.613281 19.253906 -16.734375 19.640625 -16.859375 L 19.640625 -22.8125 C 19.640625 -24.363281 19.078125 -25.566406 17.953125 -26.421875 C 16.835938 -27.285156 15.25 -27.71875 13.1875 -27.71875 C 11.59375 -27.71875 10.285156 -27.457031 9.265625 -26.9375 C 8.253906 -26.425781 7.75 -25.757812 7.75 -24.9375 C 7.75 -24.59375 7.820312 -24.257812 7.96875 -23.9375 C 8.125 -23.613281 8.273438 -23.300781 8.421875 -23 C 8.578125 -22.695312 8.726562 -22.382812 8.875 -22.0625 C 9.03125 -21.738281 9.109375 -21.382812 9.109375 -21 C 9.109375 -20.269531 8.785156 -19.632812 8.140625 -19.09375 C 7.492188 -18.550781 6.804688 -18.28125 6.078125 -18.28125 C 5.253906 -18.28125 4.570312 -18.601562 4.03125 -19.25 C 3.5 -19.90625 3.234375 -20.726562 3.234375 -21.71875 C 3.234375 -22.75 3.5 -23.707031 4.03125 -24.59375 C 4.570312 -25.476562 5.328125 -26.242188 6.296875 -26.890625 C 7.265625 -27.535156 8.40625 -28.039062 9.71875 -28.40625 C 11.039062 -28.769531 12.476562 -28.953125 14.03125 -28.953125 C 15.664062 -28.953125 17.171875 -28.710938 18.546875 -28.234375 C 19.921875 -27.765625 21.113281 -27.117188 22.125 -26.296875 C 23.144531 -25.484375 23.929688 -24.492188 24.484375 -23.328125 C 25.046875 -22.160156 25.328125 -20.910156 25.328125 -19.578125 L 25.328125 -5.421875 C 25.328125 -3.523438 25.671875 -2.210938 26.359375 -1.484375 C 27.054688 -0.753906 28.394531 -0.367188 30.375 -0.328125 Z M 30.375 0.640625 "/></g></g></g></svg>